<svg xmlns="http://www.w3.org/2000/svg" xmlns:xlink="http://www.w3.org/1999/xlink" width="1080" zoomAndPan="magnify" viewBox="0 0 810 809.999993" height="1080" preserveAspectRatio="xMidYMid meet" version="1.2"><defs><clipPath id="1dc5451290"><path d="M 216 0 L 789.859375 0 L 789.859375 810 L 216 810 Z M 216 0 "/></clipPath><clipPath id="83dc027bf8"><path d="M 220.632812 0 L 786.109375 0 C 787.105469 0 788.058594 0.394531 788.761719 1.097656 C 789.464844 1.800781 789.859375 2.753906 789.859375 3.75 L 789.859375 806.179688 C 789.859375 807.171875 789.464844 808.125 788.761719 808.828125 C 788.058594 809.53125 787.105469 809.929688 786.109375 809.929688 L 220.632812 809.929688 C 219.636719 809.929688 218.683594 809.53125 217.980469 808.828125 C 217.277344 808.125 216.882812 807.171875 216.882812 806.179688 L 216.882812 3.75 C 216.882812 2.753906 217.277344 1.800781 217.980469 1.097656 C 218.683594 0.394531 219.636719 0 220.632812 0 Z M 220.632812 0 "/></clipPath><clipPath id="855226ca72"><path d="M 216.886719 0 L 789.882812 0 L 789.882812 810 L 216.886719 810 Z M 216.886719 0 "/></clipPath><clipPath id="50c5fad948"><path d="M 220.636719 0 L 786.105469 0 C 787.101562 0 788.054688 0.394531 788.757812 1.097656 C 789.460938 1.800781 789.855469 2.753906 789.855469 3.75 L 789.855469 806.167969 C 789.855469 807.164062 789.460938 808.117188 788.757812 808.820312 C 788.054688 809.523438 787.101562 809.917969 786.105469 809.917969 L 220.636719 809.917969 C 219.640625 809.917969 218.6875 809.523438 217.984375 808.820312 C 217.28125 808.117188 216.886719 807.164062 216.886719 806.167969 L 216.886719 3.75 C 216.886719 2.753906 217.28125 1.800781 217.984375 1.097656 C 218.6875 0.394531 219.640625 0 220.636719 0 Z M 220.636719 0 "/></clipPath><clipPath id="3bfcae5c79"><path d="M 125.222656 217.515625 L 548.371094 217.515625 L 548.371094 810 L 125.222656 810 Z M 125.222656 217.515625 "/></clipPath><clipPath id="751a4e7457"><path d="M 128.96875 217.515625 L 544.621094 217.515625 C 545.617188 217.515625 546.570312 217.910156 547.273438 218.613281 C 547.976562 219.316406 548.371094 220.269531 548.371094 221.265625 L 548.371094 806.179688 C 548.371094 807.171875 547.976562 808.125 547.273438 808.828125 C 546.570312 809.53125 545.617188 809.929688 544.621094 809.929688 L 128.96875 809.929688 C 127.976562 809.929688 127.023438 809.53125 126.320312 808.828125 C 125.617188 808.125 125.222656 807.171875 125.222656 806.179688 L 125.222656 221.265625 C 125.222656 220.269531 125.617188 219.316406 126.320312 218.613281 C 127.023438 217.910156 127.976562 217.515625 128.96875 217.515625 Z M 128.96875 217.515625 "/></clipPath><clipPath id="8b7bdc654c"><path d="M 125.222656 217.515625 L 548.21875 217.515625 L 548.21875 810 L 125.222656 810 Z M 125.222656 217.515625 "/></clipPath><clipPath id="989a84bf24"><path d="M 128.96875 217.519531 L 544.472656 217.519531 C 545.464844 217.519531 546.417969 217.914062 547.121094 218.617188 C 547.824219 219.320312 548.21875 220.273438 548.21875 221.269531 L 548.21875 805.972656 C 548.21875 806.964844 547.824219 807.921875 547.121094 808.625 C 546.417969 809.324219 545.464844 809.722656 544.472656 809.722656 L 128.96875 809.722656 C 127.976562 809.722656 127.023438 809.324219 126.320312 808.625 C 125.617188 807.921875 125.222656 806.964844 125.222656 805.972656 L 125.222656 221.269531 C 125.222656 220.273438 125.617188 219.320312 126.320312 218.617188 C 127.023438 217.914062 127.976562 217.519531 128.96875 217.519531 Z M 128.96875 217.519531 "/></clipPath><clipPath id="7f6b052c52"><path d="M 20.066406 377.820312 L 313.851562 377.820312 L 313.851562 810 L 20.066406 810 Z M 20.066406 377.820312 "/></clipPath><clipPath id="c17609d325"><path d="M 23.816406 377.820312 L 310.101562 377.820312 C 311.097656 377.820312 312.050781 378.214844 312.753906 378.917969 C 313.457031 379.621094 313.851562 380.574219 313.851562 381.566406 L 313.851562 806.179688 C 313.851562 807.171875 313.457031 808.125 312.753906 808.828125 C 312.050781 809.53125 311.097656 809.929688 310.101562 809.929688 L 23.816406 809.929688 C 22.824219 809.929688 21.867188 809.53125 21.164062 808.828125 C 20.460938 808.125 20.066406 807.171875 20.066406 806.179688 L 20.066406 381.566406 C 20.066406 380.574219 20.460938 379.621094 21.164062 378.917969 C 21.867188 378.214844 22.824219 377.820312 23.816406 377.820312 Z M 23.816406 377.820312 "/></clipPath><clipPath id="1caf1ee5eb"><path d="M 20.066406 377.820312 L 314 377.820312 L 314 809.820312 L 20.066406 809.820312 Z M 20.066406 377.820312 "/></clipPath><clipPath id="60f08d6a31"><path d="M 23.816406 377.820312 L 310.023438 377.820312 C 311.019531 377.820312 311.972656 378.214844 312.675781 378.917969 C 313.378906 379.621094 313.773438 380.574219 313.773438 381.570312 L 313.773438 806.066406 C 313.773438 807.0625 313.378906 808.015625 312.675781 808.71875 C 311.972656 809.421875 311.019531 809.816406 310.023438 809.816406 L 23.816406 809.816406 C 22.820312 809.816406 21.867188 809.421875 21.164062 808.71875 C 20.460938 808.015625 20.066406 807.0625 20.066406 806.066406 L 20.066406 381.570312 C 20.066406 380.574219 20.460938 379.621094 21.164062 378.917969 C 21.867188 378.214844 22.820312 377.820312 23.816406 377.820312 Z M 23.816406 377.820312 "/></clipPath></defs><g id="e4ebb66fb0"><g clip-rule="nonzero" clip-path="url(#1dc5451290)"><g clip-rule="nonzero" clip-path="url(#83dc027bf8)"><path style=" stroke:none;fill-rule:nonzero;fill:#f06b63;fill-opacity:1;" d="M 216.882812 0 L 789.859375 0 L 789.859375 810.226562 L 216.882812 810.226562 Z M 216.882812 0 "/></g></g><g clip-rule="nonzero" clip-path="url(#855226ca72)"><g clip-rule="nonzero" clip-path="url(#50c5fad948)"><path style="fill:none;stroke-width:50;stroke-linecap:butt;stroke-linejoin:miter;stroke:#22554e;stroke-opacity:1;stroke-miterlimit:4;" d="M 5.000484 -0.0000266667 L 758.958855 -0.0000266667 C 760.286981 -0.0000266667 761.557814 0.526015 762.495314 1.463515 C 763.432814 2.401015 763.958856 3.671849 763.958856 4.999974 L 763.958856 1074.890652 C 763.958856 1076.218777 763.432814 1077.489611 762.495314 1078.427111 C 761.557814 1079.364611 760.286981 1079.890653 758.958855 1079.890653 L 5.000484 1079.890653 C 3.672359 1079.890653 2.401526 1079.364611 1.464026 1078.427111 C 0.526526 1077.489611 0.000483948 1076.218777 0.000483948 1074.890652 L 0.000483948 4.999974 C 0.000483948 3.671849 0.526526 2.401015 1.464026 1.463515 C 2.401526 0.526015 3.672359 -0.0000266667 5.000484 -0.0000266667 Z M 5.000484 -0.0000266667 " transform="matrix(0.75,0,0,0.75,216.886356,0.00002)"/></g></g><g clip-rule="nonzero" clip-path="url(#3bfcae5c79)"><g clip-rule="nonzero" clip-path="url(#751a4e7457)"><path style=" stroke:none;fill-rule:nonzero;fill:#f2dea7;fill-opacity:1;" d="M 125.222656 217.515625 L 548.371094 217.515625 L 548.371094 809.265625 L 125.222656 809.265625 Z M 125.222656 217.515625 "/></g></g><g clip-rule="nonzero" clip-path="url(#8b7bdc654c)"><g clip-rule="nonzero" clip-path="url(#989a84bf24)"><path style="fill:none;stroke-width:50;stroke-linecap:butt;stroke-linejoin:miter;stroke:#22554e;stroke-opacity:1;stroke-miterlimit:4;" d="M 4.999023 -0.00188143 L 559.188445 -0.00188143 C 560.511801 -0.00188143 561.783057 0.524335 562.720869 1.462147 C 563.658681 2.399959 564.184897 3.671215 564.184897 4.999781 L 564.184897 784.863176 C 564.184897 786.186533 563.658681 787.462999 562.720869 788.40081 C 561.783057 789.333412 560.511801 789.864839 559.188445 789.864839 L 4.999023 789.864839 C 3.675666 789.864839 2.40441 789.333412 1.466599 788.40081 C 0.528787 787.462999 0.00257025 786.186533 0.00257025 784.863176 L 0.00257025 4.999781 C 0.00257025 3.671215 0.528787 2.399959 1.466599 1.462147 C 2.40441 0.524335 3.675666 -0.00188143 4.999023 -0.00188143 Z M 4.999023 -0.00188143 " transform="matrix(0.749751,0,0,0.749751,125.220729,217.520942)"/></g></g><g clip-rule="nonzero" clip-path="url(#7f6b052c52)"><g clip-rule="nonzero" clip-path="url(#c17609d325)"><path style=" stroke:none;fill-rule:nonzero;fill:#f2dea7;fill-opacity:1;" d="M 20.066406 377.820312 L 313.851562 377.820312 L 313.851562 810.460938 L 20.066406 810.460938 Z M 20.066406 377.820312 "/></g></g><g clip-rule="nonzero" clip-path="url(#1caf1ee5eb)"><g clip-rule="nonzero" clip-path="url(#60f08d6a31)"><path style="fill:none;stroke-width:50;stroke-linecap:butt;stroke-linejoin:miter;stroke:#22554e;stroke-opacity:1;stroke-miterlimit:4;" d="M 4.999734 -0.00153703 L 386.702288 -0.00153703 C 388.030737 -0.00153703 389.301881 0.524633 390.23961 1.462362 C 391.177338 2.400091 391.703509 3.671235 391.703509 4.999684 L 391.703509 571.132677 C 391.703509 572.461126 391.177338 573.73227 390.23961 574.669999 C 389.301881 575.607727 388.030737 576.133898 386.702288 576.133898 L 4.999734 576.133898 C 3.671284 576.133898 2.400141 575.607727 1.462412 574.669999 C 0.524683 573.73227 -0.00148719 572.461126 -0.00148719 571.132677 L -0.00148719 4.999684 C -0.00148719 3.671235 0.524683 2.400091 1.462412 1.462362 C 2.400141 0.524633 3.671284 -0.00153703 4.999734 -0.00153703 Z M 4.999734 -0.00153703 " transform="matrix(0.749817,0,0,0.749817,20.067521,377.821465)"/></g></g></g></svg>